<?xml version="1.0" encoding="UTF-8" standalone="no"?>
<svg
   xmlns:dc="http://purl.org/dc/elements/1.1/"
   xmlns:cc="http://creativecommons.org/ns#"
   xmlns:rdf="http://www.w3.org/1999/02/22-rdf-syntax-ns#"
   xmlns:svg="http://www.w3.org/2000/svg"
   xmlns="http://www.w3.org/2000/svg"
   xmlns:sodipodi="http://sodipodi.sourceforge.net/DTD/sodipodi-0.dtd"
   xmlns:inkscape="http://www.inkscape.org/namespaces/inkscape"
   width="6.3499999mm"
   height="6.3499813mm"
   viewBox="0 0 6.3499998 6.3499816"
   version="1.1"
   id="svg8"
   inkscape:version="1.0.1 (3bc2e813f5, 2020-09-07)"
   sodipodi:docname="activities-popos.svg">
  <defs
     id="defs2" />
  <sodipodi:namedview
     id="base"
     pagecolor="#ffffff"
     bordercolor="#666666"
     borderopacity="1.0"
     inkscape:pageopacity="1"
     inkscape:pageshadow="2"
     inkscape:zoom="32"
     inkscape:cx="12.421573"
     inkscape:cy="12.04431"
     inkscape:document-units="mm"
     inkscape:current-layer="layer1"
     inkscape:document-rotation="0"
     showgrid="false"
     inkscape:snap-global="false"
     fit-margin-top="0"
     fit-margin-left="0"
     fit-margin-right="0"
     fit-margin-bottom="0"
     inkscape:pagecheckerboard="true"
     borderlayer="false"
     showborder="true"
     inkscape:showpageshadow="true"
     inkscape:window-width="1920"
     inkscape:window-height="1015"
     inkscape:window-x="0"
     inkscape:window-y="28"
     inkscape:window-maximized="1" />
  <metadata
     id="metadata5">
    <rdf:RDF>
      <cc:Work
         rdf:about="">
        <dc:format>image/svg+xml</dc:format>
        <dc:type
           rdf:resource="http://purl.org/dc/dcmitype/StillImage" />
        <dc:title />
      </cc:Work>
    </rdf:RDF>
  </metadata>
  <g
     inkscape:label="Layer 1"
     inkscape:groupmode="layer"
     id="layer1"
     transform="translate(-19.620905,-17.293868)">
    <path
       id="path5822"
       style="display:inline;fill:#383838;fill-opacity:1;stroke-width:0.0127486"
       d="m 22.794647,18.087616 a 2.381248,2.3812479 0 0 0 -2.379992,2.381243 2.381248,2.3812479 0 0 0 2.381242,2.381243 2.381248,2.3812479 0 0 0 2.381258,-2.381243 2.381248,2.3812479 0 0 0 -2.381258,-2.381243 2.381248,2.3812479 0 0 0 -0.0013,0 z m -0.438775,0.600994 c 0.09987,-0.0017 0.196515,0.01079 0.275512,0.0379 0.291996,0.100201 0.50725,0.384165 0.564784,0.744466 0.0082,0.05124 0.01126,0.18161 0.0055,0.235845 -0.01059,0.101142 -0.03409,0.182723 -0.07797,0.270893 -0.07771,0.156129 -0.205324,0.298821 -0.357277,0.399476 -0.05219,0.03457 -0.136395,0.07644 -0.185701,0.09228 -0.01092,0.0035 -0.02087,0.0071 -0.02803,0.01002 -0.0036,0.0014 -0.0065,0.0028 -0.0084,0.0038 -8.25e-4,4.24e-4 -0.0013,7.45e-4 -0.0017,0.001 6.1e-5,1.97e-4 9.9e-5,3.18e-4 1.77e-4,5.74e-4 3.24e-4,9.75e-4 8.25e-4,0.0025 0.0015,0.0042 0.0013,0.0035 0.0032,0.0085 0.0055,0.01446 0.0047,0.01193 0.01118,0.02792 0.01833,0.04508 0.01435,0.03443 0.04743,0.120126 0.0736,0.190585 0.02614,0.07041 0.07192,0.189913 0.101686,0.265508 0.08444,0.214437 0.104638,0.285069 0.104496,0.366208 -1.64e-4,0.09628 -0.03453,0.165086 -0.09808,0.194824 -0.02062,0.0097 -0.03141,0.01208 -0.05842,0.01317 -0.02085,8.25e-4 -0.04106,-7.08e-4 -0.05536,-0.0044 -0.03839,-0.0097 -0.07262,-0.02937 -0.1105,-0.06674 -0.03789,-0.03737 -0.07955,-0.09246 -0.133262,-0.173326 -0.09453,-0.142334 -0.154014,-0.246983 -0.391854,-0.689482 -0.152088,-0.282961 -0.259899,-0.489238 -0.394767,-0.755281 -0.04305,-0.08491 -0.100788,-0.195108 -0.128259,-0.244761 -0.08131,-0.146967 -0.106444,-0.212396 -0.110087,-0.287329 -0.0017,-0.03454 -6.25e-4,-0.04749 0.0061,-0.07413 0.02043,-0.08156 0.07156,-0.149457 0.181508,-0.241643 0.128487,-0.107735 0.250608,-0.191411 0.358218,-0.245394 0.03952,-0.01983 0.101088,-0.04487 0.147843,-0.06013 0.09196,-0.03004 0.195063,-0.04604 0.294936,-0.04778 z m -0.187541,0.459213 c -0.0034,5e-6 -0.0067,1.43e-4 -0.01,4.26e-4 -0.0075,6.49e-4 -0.01488,0.002 -0.02206,0.0041 -0.02962,0.0086 -0.04906,0.02662 -0.05999,0.05735 -0.01093,0.03073 -0.01305,0.07427 -0.007,0.13307 0.01773,0.171605 0.07183,0.328872 0.16725,0.48608 0.05341,0.08799 0.09933,0.146961 0.141825,0.180287 0.0425,0.03332 0.08122,0.04115 0.121594,0.02743 0.01127,-0.0038 0.0253,-0.01375 0.03812,-0.02636 0.01282,-0.01259 0.02449,-0.02784 0.03145,-0.04214 0.0195,-0.03999 0.02516,-0.06971 0.02731,-0.143444 0.0023,-0.07678 -0.003,-0.124989 -0.02126,-0.195426 -0.03754,-0.1449 -0.120052,-0.283468 -0.23018,-0.386601 -0.06355,-0.05951 -0.118806,-0.09059 -0.166911,-0.09439 -0.0034,-2.7e-4 -0.0068,-4.02e-4 -0.01019,-3.97e-4 z m 1.671588,0.404949 c 0.09005,2e-6 0.146874,0.01269 0.223177,0.04987 0.07001,0.0341 0.119213,0.07785 0.144517,0.129347 0.01629,0.03314 0.01795,0.04138 0.01751,0.08843 -3.03e-4,0.0324 -0.0035,0.05847 -0.01513,0.09545 -0.01166,0.03698 -0.03172,0.08494 -0.06589,0.162189 -0.08897,0.201157 -0.186379,0.387031 -0.321272,0.613102 -0.06262,0.10494 -0.109173,0.178083 -0.145915,0.227841 -0.03674,0.04976 -0.06357,0.0763 -0.08775,0.08766 -0.01766,0.0083 -0.03274,0.01234 -0.04666,0.01148 -0.01392,-8.25e-4 -0.02635,-0.0068 -0.03815,-0.01712 -0.019,-0.01668 -0.03097,-0.04109 -0.038,-0.08457 -0.007,-0.04348 -0.0094,-0.106479 -0.0094,-0.202137 7e-6,-0.2802 0.02285,-0.527581 0.07499,-0.812193 0.02941,-0.160509 0.05307,-0.226667 0.100082,-0.276925 0.02617,-0.02798 0.05117,-0.04633 0.08318,-0.05743 0.032,-0.0111 0.07071,-0.01499 0.124742,-0.01499 z m -0.381524,1.67487 c 0.0042,-3e-5 0.0084,7.8e-5 0.01248,3.24e-4 0.02452,0.0015 0.04633,0.008 0.06537,0.01992 0.02539,0.01585 0.04571,0.04097 0.06162,0.07522 0.01322,0.02846 0.01534,0.04027 0.01539,0.0874 7.9e-5,0.05943 -0.0087,0.09122 -0.03673,0.132364 -0.03481,0.05113 -0.09898,0.07798 -0.160953,0.06746 -0.09113,-0.01546 -0.148891,-0.117091 -0.12942,-0.224472 0.0166,-0.09152 0.07709,-0.151804 0.159289,-0.157686 0.0044,-3.1e-4 0.0087,-4.95e-4 0.01294,-5.29e-4 z m 0.35916,0.558015 c 0.01507,8.3e-5 0.02896,2.83e-4 0.04178,6.03e-4 0.05128,0.0013 0.08534,0.0044 0.108749,0.0098 0.08257,0.01898 0.142626,0.102628 0.142826,0.197751 1.54e-4,0.07365 -0.04208,0.14628 -0.102129,0.174504 -0.01038,0.0049 -0.01577,0.009 -0.03508,0.0118 -0.01931,0.0028 -0.05274,0.0046 -0.121476,0.0058 -0.137466,0.0024 -0.415994,0.0024 -1.002043,0.0029 -0.299193,2.53e-4 -0.57478,1.99e-4 -0.777779,-8.9e-5 -0.1015,-1.45e-4 -0.184857,-3.47e-4 -0.243938,-6.03e-4 -0.02954,-1.28e-4 -0.05301,-2.7e-4 -0.06965,-4.12e-4 -0.01664,-1.54e-4 -0.02598,-2.87e-4 -0.02891,-5.15e-4 -0.03665,-0.0029 -0.05913,-0.0099 -0.08512,-0.02659 -0.07026,-0.04509 -0.102897,-0.136454 -0.08048,-0.224089 0.01011,-0.03953 0.02443,-0.06507 0.05194,-0.09261 0.02179,-0.02181 0.04384,-0.03604 0.07398,-0.04459 0.03013,-0.0085 0.06823,-0.01155 0.122859,-0.01164 0.03637,-5.3e-5 0.422732,0.001 0.858821,0.0025 0.600084,0.002 0.837359,0.0014 0.975693,-0.0022 0.046,-0.0012 0.08613,-0.002 0.121152,-0.0023 v 1.5e-5 c 0.01751,-1.5e-4 0.03375,-1.86e-4 0.04882,-1.04e-4 z" />
  </g>
</svg>
