<?xml version="1.0" encoding="UTF-8" standalone="no"?>
<svg
   height="16"
   id="svg7384"
   style="enable-background:new"
   version="1.1"
   width="16"
   sodipodi:docname="view-app-grid.svg"
   inkscape:version="1.1 (c68e22c387, 2021-05-23)"
   xmlns:inkscape="http://www.inkscape.org/namespaces/inkscape"
   xmlns:sodipodi="http://sodipodi.sourceforge.net/DTD/sodipodi-0.dtd"
   xmlns="http://www.w3.org/2000/svg"
   xmlns:svg="http://www.w3.org/2000/svg"
   xmlns:rdf="http://www.w3.org/1999/02/22-rdf-syntax-ns#"
   xmlns:cc="http://creativecommons.org/ns#"
   xmlns:dc="http://purl.org/dc/elements/1.1/">
  <sodipodi:namedview
     id="namedview30"
     pagecolor="#505050"
     bordercolor="#ffffff"
     borderopacity="1"
     inkscape:pageshadow="0"
     inkscape:pageopacity="0"
     inkscape:pagecheckerboard="1"
     showgrid="false"
     inkscape:zoom="52.75"
     inkscape:cx="8.0094787"
     inkscape:cy="8.0094787"
     inkscape:window-width="1920"
     inkscape:window-height="1016"
     inkscape:window-x="0"
     inkscape:window-y="27"
     inkscape:window-maximized="1"
     inkscape:current-layer="layer12" />
  <metadata
     id="metadata90">
    <rdf:RDF>
      <cc:Work
         rdf:about="">
        <dc:format>image/svg+xml</dc:format>
        <dc:type
           rdf:resource="http://purl.org/dc/dcmitype/StillImage" />
        <dc:title>Pop Symbolic Icon Theme</dc:title>
        <cc:license
           rdf:resource="http://creativecommons.org/licenses/by-sa/4.0/" />
      </cc:Work>
      <cc:License
         rdf:about="http://creativecommons.org/licenses/by-sa/4.0/">
        <cc:permits
           rdf:resource="http://creativecommons.org/ns#Reproduction" />
        <cc:permits
           rdf:resource="http://creativecommons.org/ns#Distribution" />
        <cc:requires
           rdf:resource="http://creativecommons.org/ns#Notice" />
        <cc:requires
           rdf:resource="http://creativecommons.org/ns#Attribution" />
        <cc:permits
           rdf:resource="http://creativecommons.org/ns#DerivativeWorks" />
        <cc:requires
           rdf:resource="http://creativecommons.org/ns#ShareAlike" />
      </cc:License>
    </rdf:RDF>
  </metadata>
  <title
     id="title8473">Pop Symbolic Icon Theme</title>
  <defs
     id="defs7386">
    <linearGradient
       id="linearGradient6882"
       inkscape:swatch="solid">
      <stop
         id="stop6884"
         offset="0"
         style="stop-color:#555555;stop-opacity:1;" />
    </linearGradient>
    <linearGradient
       id="linearGradient5606"
       inkscape:swatch="solid">
      <stop
         id="stop5608"
         offset="0"
         style="stop-color:#000000;stop-opacity:1;" />
    </linearGradient>
    <filter
       id="filter7554"
       style="color-interpolation-filters:sRGB">
      <feBlend
         id="feBlend7556"
         in2="BackgroundImage"
         mode="darken" />
    </filter>
  </defs>
  <g
     id="layer9"
     style="display:inline"
     transform="translate(-645.00021,15.003326)" />
  <g
     id="layer10"
     style="display:inline;filter:url(#filter7554)"
     transform="translate(-645.00021,15.003326)" />
  <g
     id="layer1"
     style="display:inline"
     transform="translate(-404.00001,-601.99667)" />
  <g
     id="layer14"
     style="display:inline"
     transform="translate(-645.00021,15.003326)" />
  <g
     id="layer15"
     style="display:inline"
     transform="translate(-645.00021,15.003326)" />
  <g
     id="g71291"
     style="display:inline"
     transform="translate(-645.00021,15.003326)" />
  <g
     id="layer2"
     style="display:inline"
     transform="translate(-404.00001,-451.99667)" />
  <g
     id="layer3"
     transform="translate(-404.00001,-711.99667)" />
  <g
     id="layer12"
     style="display:inline"
     transform="translate(-645.00021,15.003326)">
    <rect
       height="2"
       id="rect6780"
       ry="1"
       style="opacity:1;fill:#4c5263;fill-opacity:1;stroke:none;stroke-width:2;stroke-linecap:round;stroke-linejoin:miter;stroke-miterlimit:4;stroke-dasharray:none;stroke-opacity:1"
       width="2"
       x="649.00024"
       y="-11" />
    <rect
       height="2"
       id="rect6782"
       ry="1"
       style="opacity:1;fill:#4c5263;fill-opacity:1;stroke:none;stroke-width:2;stroke-linecap:round;stroke-linejoin:miter;stroke-miterlimit:4;stroke-dasharray:none;stroke-opacity:1"
       width="2"
       x="652.00024"
       y="-11" />
    <rect
       height="2"
       id="rect6784"
       ry="1"
       style="opacity:1;fill:#4c5263;fill-opacity:1;stroke:none;stroke-width:2;stroke-linecap:round;stroke-linejoin:miter;stroke-miterlimit:4;stroke-dasharray:none;stroke-opacity:1"
       width="2"
       x="655.00024"
       y="-11" />
    <rect
       height="2"
       id="rect6788"
       ry="1"
       style="opacity:1;fill:#4c5263;fill-opacity:1;stroke:none;stroke-width:2;stroke-linecap:round;stroke-linejoin:miter;stroke-miterlimit:4;stroke-dasharray:none;stroke-opacity:1"
       width="2"
       x="649.00024"
       y="-8" />
    <rect
       height="2"
       id="rect6790"
       ry="1"
       style="opacity:1;fill:#4c5263;fill-opacity:1;stroke:none;stroke-width:2;stroke-linecap:round;stroke-linejoin:miter;stroke-miterlimit:4;stroke-dasharray:none;stroke-opacity:1"
       width="2"
       x="652.00024"
       y="-8" />
    <rect
       height="2"
       id="rect6793"
       ry="1"
       style="opacity:1;fill:#4c5263;fill-opacity:1;stroke:none;stroke-width:2;stroke-linecap:round;stroke-linejoin:miter;stroke-miterlimit:4;stroke-dasharray:none;stroke-opacity:1"
       width="2"
       x="655.00024"
       y="-8" />
    <rect
       height="2"
       id="rect6798"
       ry="1"
       style="opacity:1;fill:#4c5263;fill-opacity:1;stroke:none;stroke-width:2;stroke-linecap:round;stroke-linejoin:miter;stroke-miterlimit:4;stroke-dasharray:none;stroke-opacity:1"
       width="2"
       x="649.00024"
       y="-5" />
    <rect
       height="2"
       id="rect6800"
       ry="1"
       style="opacity:1;fill:#4c5263;fill-opacity:1;stroke:none;stroke-width:2;stroke-linecap:round;stroke-linejoin:miter;stroke-miterlimit:4;stroke-dasharray:none;stroke-opacity:1"
       width="2"
       x="652.00024"
       y="-5" />
    <rect
       height="2"
       id="rect6802"
       ry="1"
       style="opacity:1;fill:#4c5263;fill-opacity:1;stroke:none;stroke-width:2;stroke-linecap:round;stroke-linejoin:miter;stroke-miterlimit:4;stroke-dasharray:none;stroke-opacity:1"
       width="2"
       x="655.00024"
       y="-5" />
    <path
       style="fill:#ffffff;stroke:#ffffff;stroke-width:0.0189573"
       d="M 4.8436019,5.9881539 C 4.1646261,5.8568353 3.8174908,5.1652169 4.1186328,4.5437543 4.1478432,4.4834731 4.2245976,4.3814274 4.2938389,4.3108159 4.8717853,3.7214329 5.8608416,4.0475946 5.9828315,4.8677961 6.0522197,5.3343298 5.7470684,5.817659 5.2985782,5.951585 5.1919085,5.9834381 4.9286315,6.0045991 4.8436019,5.9881539 Z"
       id="path204"
       transform="translate(645.00021,-15.003326)" />
    <path
       style="fill:#ffffff;stroke:#ffffff;stroke-width:0.0189573"
       d="M 7.7446752,5.96213 C 7.3327667,5.8505573 7.0472299,5.5061019 7.0109042,5.0769503 6.9706669,4.6015868 7.2998172,4.1482725 7.7647975,4.0386689 8.6513991,3.829682 9.3232148,4.8068011 8.8171373,5.5692392 8.5927941,5.9072264 8.1461116,6.0708662 7.7446752,5.96213 Z"
       id="path280"
       transform="translate(645.00021,-15.003326)" />
    <path
       style="fill:#ffffff;stroke:#ffffff;stroke-width:0.0189573"
       d="M 10.78673,5.9721412 C 10.497914,5.9090567 10.244035,5.7094463 10.113491,5.4428124 9.9691088,5.1479145 9.9692955,4.860138 10.11406,4.5651671 c 0.299589,-0.6104392 1.103749,-0.7442334 1.584378,-0.2636049 0.391685,0.3916857 0.390224,1.0220333 -0.0033,1.4080922 -0.243722,0.2391198 -0.575945,0.3351126 -0.908443,0.2624868 z"
       id="path319"
       transform="translate(645.00021,-15.003326)" />
    <path
       style="fill:#ffffff;stroke:#ffffff;stroke-width:0.0189573"
       d="M 10.763453,8.9680216 C 10.600252,8.928476 10.42117,8.8287525 10.305329,8.7129122 10.103506,8.5110888 10.014138,8.2965544 10.012302,8.0094787 c -0.0018,-0.2790542 0.07897,-0.4825084 0.274439,-0.6914707 0.374555,-0.400401 1.020649,-0.4102588 1.408233,-0.021486 0.311822,0.3127779 0.383067,0.7579535 0.186393,1.1646921 -0.06686,0.1382831 -0.283408,0.3559226 -0.421928,0.4240642 -0.215255,0.1058895 -0.473674,0.1366121 -0.695986,0.082743 z"
       id="path358"
       transform="translate(645.00021,-15.003326)" />
    <path
       style="fill:#ffffff;stroke:#ffffff;stroke-width:0.0189573"
       d="m 10.684369,11.942935 c -0.7909639,-0.275938 -0.9206792,-1.31646 -0.221281,-1.775027 0.155243,-0.101786 0.32372,-0.150607 0.522694,-0.151464 0.198613,-8.55e-4 0.312801,0.0259 0.480426,0.112589 0.342271,0.176998 0.540375,0.529161 0.519276,0.9231 -0.01801,0.336277 -0.175317,0.610505 -0.452081,0.788104 -0.163506,0.104921 -0.271908,0.136183 -0.500228,0.144259 -0.186507,0.0066 -0.223345,0.0022 -0.348806,-0.04156 z"
       id="path397"
       transform="translate(645.00021,-15.003326)" />
    <path
       style="fill:#ffffff;stroke:#ffffff;stroke-width:0.0189573"
       d="M 7.7382241,11.962071 C 7.3938009,11.867386 7.1158306,11.577805 7.0332809,11.227683 6.9156645,10.72883 7.2137147,10.208504 7.7047937,10.055378 c 0.1590442,-0.04959 0.4075471,-0.0533 0.5620586,-0.0084 0.3493943,0.101572 0.6165498,0.381314 0.6992626,0.732207 0.1221124,0.518039 -0.1958733,1.046224 -0.7126734,1.183775 -0.1251091,0.0333 -0.3924967,0.03283 -0.5152174,-9.1e-4 z"
       id="path436"
       transform="translate(645.00021,-15.003326)" />
    <path
       style="fill:#ffffff;stroke:#ffffff;stroke-width:0.0189573"
       d="M 7.7462052,8.9652976 C 7.2882619,8.8421413 6.9713579,8.3949901 7.0109042,7.927789 7.0451645,7.5230378 7.3030791,7.1918981 7.6872038,7.0594797 7.8602389,6.9998297 8.1391649,6.9997225 8.3127962,7.0592393 8.8895452,7.2569354 9.1523363,7.8915728 8.886819,8.4454976 8.6893755,8.8574064 8.1904589,9.0847725 7.7462052,8.9652976 Z"
       id="path475"
       transform="translate(645.00021,-15.003326)" />
    <path
       style="fill:#ffffff;stroke:#ffffff;stroke-width:0.0189573"
       d="M 4.7511612,8.965353 C 4.1268933,8.7974492 3.8251923,8.1007544 4.1285534,7.5276134 4.2098755,7.3739715 4.3866387,7.200194 4.5403231,7.1227991 4.8362175,6.9737876 5.14734,6.9720775 5.4430472,7.1178371 5.5606444,7.175803 5.6251559,7.2238251 5.7162599,7.3212156 6.3198131,7.9664159 5.8683189,9.0001666 4.985782,8.9937329 4.9127962,8.9932002 4.8072168,8.98043 4.7511612,8.965353 Z"
       id="path514"
       transform="translate(645.00021,-15.003326)" />
    <path
       style="fill:#ffffff;stroke:#ffffff;stroke-width:0.0189573"
       d="M 4.7318413,11.960521 C 4.5717473,11.917469 4.4472537,11.841172 4.301865,11.697007 4.1015472,11.498374 4.0101477,11.282662 4.0097037,11.007476 c -7.279e-4,-0.451085 0.2888214,-0.833871 0.726281,-0.96015 0.1535163,-0.04431 0.4052372,-0.04075 0.5625935,0.008 0.7084402,0.219302 0.9278529,1.124546 0.39987,1.649767 -0.2002843,0.199237 -0.4146916,0.285831 -0.7031875,0.284 -0.088626,-5.63e-4 -0.2071643,-0.0134 -0.2634194,-0.02853 z"
       id="path553"
       transform="translate(645.00021,-15.003326)" />
  </g>
</svg>
